#!OML:ASF F:\VICON\USERDATA\INSTALL\rory3\rory3.ASF
:FULLY-SPECIFIED
:DEGREES
127
root -0.0207 18.3649 -50.4233 5.42929 0.118 4.10257
lowerback 13.2966 -2.88939 -4.51619
upperback 0.785561 -4.50641 -0.0151674
thorax -6.2696 -2.07653 3.34589
lowerneck -7.09537 3.50918 -0.263497
upperneck -10.3839 4.5013 -2.58163
head -2.00795 2.28644 -0.748404
rclavicle -1.22004e-014 -9.29318e-015
rhumerus -59.8589 -0.292016 -78.3165
rradius 85.9158
rwrist -4.22035
rhand -34.1909 33.7784
rfingers 7.12502
rthumb -7.36381 3.92651
lclavicle -1.22004e-014 -9.29318e-015
lhumerus -21.0699 -21.2786 90.3054
lradius 117.013
lwrist 23.2032
lhand -37.3063 3.51839
lfingers 7.12502
lthumb -10.3701 33.2427
rfemur -35.7313 6.51524 16.9019
rtibia 22.7585
rfoot 2.33367 -7.64205
rtoes -17.4058
lfemur 19.6609 -3.64658 -33.3263
ltibia 37.0814
lfoot 27.2643 3.82129
ltoes -19.626
128
root -0.0207 18.3313 -50.1391 5.1643 0.118 3.89578
lowerback 13.6289 -2.77562 -4.27179
upperback 0.932056 -4.32621 0.0443291
thorax -6.32692 -1.99441 3.25726
lowerneck -7.41407 3.42149 -0.263851
upperneck -10.489 4.38516 -2.54452
head -1.99092 2.22618 -0.732335
rclavicle -1.0958e-014 2.78299e-015
rhumerus -58.8006 -0.494794 -78.7609
rradius 86.1513
rwrist -4.27274
rhand -33.616 33.4353
rfingers 7.12502
rthumb -6.80888 3.56474
lclavicle -1.0958e-014 2.78299e-015
lhumerus -22.3082 -21.4152 90.8423
lradius 116.205
lwrist 22.9369
lhand -36.8936 5.30971
lfingers 7.12502
lthumb -9.97195 35.0535
rfemur -34.3563 5.7538 17.9831
rtibia 21.9078
rfoot 2.67474 -6.91828
rtoes -18.3781
lfemur 17.7794 -2.86301 -32.8354
ltibia 42.7889
lfoot 27.6718 3.92865
ltoes -16.3912
129
root -0.0207 18.2735 -49.8549 4.84175 0.118 3.576
lowerback 13.7718 -2.73389 -4.00332
upperback 1.15376 -4.22059 0.182355
thorax -6.18705 -1.95613 3.23446
lowerneck -7.57787 3.40932 -0.51592
upperneck -10.3259 4.39383 -2.44032
head -1.91802 2.23554 -0.651856
rclavicle -3.7123e-014 -1.44119e-014
rhumerus -57.4643 -0.278995 -79.31
rradius 86.3142
rwrist -4.34816
rhand -33.6074 33.3468
rfingers 7.12502
rthumb -6.80058 3.47602
lclavicle -3.7123e-014 -1.44119e-014
lhumerus -23.4739 -21.0903 91.2287
lradius 115.241
lwrist 23.2356
lhand -36.372 6.03584
lfingers 7.12502
lthumb -9.46876 35.8031
rfemur -32.931 5.25369 19.0977
rtibia 21.5212
rfoot 2.95523 -5.98272
rtoes -18.4819
lfemur 15.9455 -1.84931 -32.0838
ltibia 48.6308
lfoot 27.1205 3.96382
ltoes -19.4581
130
root -0.0206 18.1891 -49.5707 4.40909 0.118 2.87668
lowerback 14.6244 -2.60773 -3.47159
upperback 1.04497 -3.98379 0.499137
thorax -6.80872 -1.82962 3.28738
lowerneck -7.51855 3.43226 -0.841124
upperneck -9.899 4.45442 -2.39567
head -1.79697 2.27346 -0.57812
rclavicle -1.06847e-015 1.28216e-014
rhumerus -56.5375 0.299534 -79.7864
rradius 86.6462
rwrist -4.44736
rhand -34.3682 33.5996
rfingers 7.12502
rthumb -7.53496 3.75379
lclavicle -1.06847e-015 1.28216e-014
lhumerus -25.0614 -20.6508 91.9274
lradius 114.104
lwrist 23.5435
lhand -36.49 6.11382
lfingers 7.12502
lthumb -9.58259 35.8759
rfemur -31.4289 4.82736 20.6489
rtibia 21.7019
rfoot 3.53943 -4.64747
rtoes -15.7348
lfemur 14.3116 -0.524214 -30.7699
ltibia 54.5191
lfoot 28.36 4.12234
ltoes -13.9703
131
root -0.0206 18.1036 -49.2865 3.90067 0.118 2.15266
lowerback 15.4374 -2.43877 -2.62094
upperback 1.15001 -3.63627 0.552422
thorax -7.22354 -1.67448 2.84203
lowerneck -7.96042 3.34978 -0.738784
upperneck -9.37806 4.35865 -2.31817
head -1.5563 2.21442 -0.553866
rclavicle 1.56543e-015 -7.15625e-015
rhumerus -55.4342 0.486499 -80.5729
rradius 87.2129
rwrist -4.3023
rhand -35.0345 33.4352
rfingers 7.12502
rthumb -8.17809 3.61347
lclavicle 1.56543e-015 -7.15625e-015
lhumerus -26.328 -20.5958 92.1916
lradius 112.898
lwrist 23.9069
lhand -36.9773 6.9003
lfingers 7.12502
lthumb -10.0527 36.6402
rfemur -30.0126 3.97842 22.3516
rtibia 22.6743
rfoot 3.87276 -2.22391
rtoes -13.4327
lfemur 12.426 1.0095 -29.2114
ltibia 60.4649
lfoot 26.742 3.42116
ltoes -23.5867
132
root -0.0206 18.017 -49.0023 3.33099 0.118 1.44208
lowerback 15.2744 -2.29565 -2.02253
upperback 1.8667 -3.31729 0.779108
thorax -6.40544 -1.56049 2.64594
lowerneck -8.28926 3.27947 -1.00185
upperneck -9.46263 4.29226 -2.18424
head -1.53883 2.1872 -0.465379
rclavicle 3.09359e-014 5.36719e-015
rhumerus -53.272 0.771367 -81.1315
rradius 87.7714
rwrist -4.20037
rhand -35.4051 33.453
rfingers 7.12502
rthumb -8.53575 3.6455
lclavicle 3.09359e-014 5.36719e-015
lhumerus -26.935 -20.2756 92.5179
lradius 111.682
lwrist 23.9589
lhand -36.566 6.9463
lfingers 7.12502
lthumb -9.65588 36.705
rfemur -28.7488 2.73676 24.083
rtibia 24.4117
rfoot 2.33311 1.22878
rtoes -0.907306
lfemur 10.6918 2.59727 -27.3731
ltibia 66.2837
lfoot 27.2922 3.14197
ltoes -21.2677
133
root -0.0205 17.9346 -48.7181 2.95468 0.118 0.822328
lowerback 15.5927 -2.28816 -1.49967
upperback 1.92442 -3.19974 1.12292
thorax -6.53406 -1.51023 2.70749
lowerneck -7.34973 3.29383 -1.59881
upperneck -9.86121 4.3308 -2.08815
head -1.83808 2.23419 -0.362687
rclavicle -8.49804e-015 -2.14687e-014
rhumerus -51.8729 1.91445 -81.6148
rradius 88.5095
rwrist -4.34857
rhand -35.541 33.0362
rfingers 7.12502
rthumb -8.66684 3.23409
lclavicle -8.49804e-015 -2.14687e-014
lhumerus -28.777 -19.3236 93.3873
lradius 110.823
lwrist 24.2359
lhand -36.1395 6.66552
lfingers 7.12502
lthumb -9.24444 36.4429
rfemur -27.8245 1.87084 25.4336
rtibia 26.7905
rfoot 0.640438 4.66125
rtoes -1.939
lfemur 8.69559 4.17953 -25.4752
ltibia 72.0143
lfoot 25.8346 2.77087
ltoes -17.6881
134
root -0.0205 17.8305 -48.4339 2.66475 0.118 0.424724
lowerback 15.9809 -2.22491 -1.0074
upperback 1.76144 -3.0304 1.17442
thorax -6.95434 -1.43066 2.47548
lowerneck -5.97 3.26062 -1.58314
upperneck -10.2926 4.25137 -2.08534
head -2.21286 2.20645 -0.398412
rclavicle -2.13197e-014 -3.97569e-015
rhumerus -50.9076 2.70415 -82.4109
rradius 89.4349
rwrist -4.42261
rhand -35.653 32.62
rfingers 7.12502
rthumb -8.77491 2.82244
lclavicle -2.13197e-014 -3.97569e-015
lhumerus -30.8514 -18.8314 93.9833
lradius 109.988
lwrist 24.961
lhand -35.8669 6.95076
lfingers 7.12502
lthumb -8.98135 36.7396
rfemur -27.0235 1.81574 26.1922
rtibia 29.6298
rfoot -2.12229 4.2193
rtoes 8.6628
lfemur 6.58847 5.76553 -23.6115
ltibia 77.5782
lfoot 23.0841 2.08162
ltoes -17.9508
135
root -0.0205 17.723 -48.1497 2.4135 0.118 0.0675421
lowerback 16.3401 -2.04886 -0.235997
upperback 1.71026 -2.68574 0.846668
thorax -7.27511 -1.28433 1.6347
lowerneck -5.36183 3.01799 -0.59101
upperneck -10.1413 3.88224 -2.18616
head -2.24533 1.9926 -0.60288
rclavicle -5.18828e-014 -5.46658e-015
rhumerus -49.6339 2.35706 -83.4887
rradius 90.213
rwrist -4.40505
rhand -35.747 33.5829
rfingers 7.12502
rthumb -8.86569 3.78915
lclavicle -5.18828e-014 -5.46658e-015
lhumerus -32.535 -19.2486 93.937
lradius 108.982
lwrist 24.9677
lhand -35.871 6.62981
lfingers 7.12502
lthumb -8.98535 36.4185
rfemur -26.4082 2.34151 26.7216
rtibia 32.6613
rfoot -4.79584 2.00386
rtoes 11.3407
lfemur 4.25922 6.93737 -21.7098
ltibia 83.055
lfoot 23.3755 1.24194
ltoes -10.135
